<svg id="katman_1" data-name="katman 1" xmlns="http://www.w3.org/2000/svg" viewBox="0 0 301.78 84"><defs><style>.cls-1,.cls-3{fill:#454545;}.cls-1{stroke:#fff;stroke-miterlimit:10;stroke-width:0.25px;}.cls-2{fill:#c72b26;}</style></defs><polygon class="cls-1" points="62.57 59.52 70.52 64.11 36.31 83.86 1.83 63.95 9.78 59.36 36.31 74.68 62.57 59.52"/><polygon class="cls-2" points="72.62 20.96 72.62 59.19 64.68 54.61 64.68 25.55 36.31 9.18 7.95 25.55 7.95 54.29 0 58.88 0 20.96 36.31 0 72.62 20.96"/><polygon class="cls-2" points="50.45 33.77 50.45 50.09 50.42 50.11 36.31 58.25 22.18 50.09 22.18 33.77 36.31 25.6 36.42 25.66 43.52 29.77 50.45 33.77"/><path class="cls-3" d="M148.94,52.86l3.4,1.79A18.14,18.14,0,0,1,148.47,60,15.43,15.43,0,0,1,143.53,63a17.19,17.19,0,0,1-6.2,1.05q-7.7,0-12-5A17,17,0,0,1,121,47.67,16.78,16.78,0,0,1,124.65,37a15,15,0,0,1,12.44-5.94,15.49,15.49,0,0,1,12.83,6.09,17,17,0,0,1,3.46,10.73H125.13a12.81,12.81,0,0,0,3.5,9,11.16,11.16,0,0,0,8.35,3.5,13.29,13.29,0,0,0,4.66-.84,12.09,12.09,0,0,0,3.86-2.21A18.81,18.81,0,0,0,148.94,52.86Zm0-8.45a13.36,13.36,0,0,0-2.36-5.16,11.16,11.16,0,0,0-4.08-3.12A12.53,12.53,0,0,0,137.15,35a11.5,11.5,0,0,0-7.94,3,13.43,13.43,0,0,0-3.67,6.49Z"/><path class="cls-3" d="M157.59,31.89h4.12v4.59a14.5,14.5,0,0,1,3.9-4.06,7.7,7.7,0,0,1,4.27-1.34,7.39,7.39,0,0,1,3.58,1.07l-2.11,3.4a5.76,5.76,0,0,0-2.13-.55,5.87,5.87,0,0,0-3.9,1.66,10.59,10.59,0,0,0-2.86,5.15q-.75,2.69-.75,10.85V63.28h-4.12Z"/><path class="cls-3" d="M184.3,31.89h4.16l9.62,22.79,10-22.79h.73l10.08,22.79,9.81-22.79h4.2L219.28,63.28h-.75l-10-22.48-10,22.48h-.75Z"/><path class="cls-3" d="M260.88,52.86l3.4,1.79A18.14,18.14,0,0,1,260.41,60,15.49,15.49,0,0,1,255.48,63a17.28,17.28,0,0,1-6.21,1.05q-7.7,0-12-5a17,17,0,0,1-4.33-11.38A16.78,16.78,0,0,1,236.59,37,15,15,0,0,1,249,31.08a15.49,15.49,0,0,1,12.82,6.09,17,17,0,0,1,3.46,10.73H237.08a12.76,12.76,0,0,0,3.49,9,11.16,11.16,0,0,0,8.35,3.5,13.29,13.29,0,0,0,4.66-.84,12.09,12.09,0,0,0,3.86-2.21A18.81,18.81,0,0,0,260.88,52.86Zm0-8.45a13.22,13.22,0,0,0-2.36-5.16,11.16,11.16,0,0,0-4.08-3.12A12.53,12.53,0,0,0,249.09,35a11.5,11.5,0,0,0-7.94,3,13.43,13.43,0,0,0-3.67,6.49Z"/><path class="cls-3" d="M285.63,60.18h-.39a11.86,11.86,0,0,1-8.82-3.66,12.51,12.51,0,0,1-3.58-9.12,12.89,12.89,0,0,1,1.6-6.43A11.76,11.76,0,0,1,279,36.43a12.66,12.66,0,0,1,6.29-1.69,11.91,11.91,0,0,1,6.12,1.69A12.39,12.39,0,0,1,296,41.15a12.89,12.89,0,0,1,1.7,6.38c0,.11,0,.23,0,.34h4.1c0-.08,0-.15,0-.23a16.16,16.16,0,0,0-4.72-11.73,15.93,15.93,0,0,0-18.26-3.29,17.16,17.16,0,0,0-5.67,4.66V19.77h-4V63.28h4V57.51a16.15,16.15,0,0,0,5.5,4.93,14.61,14.61,0,0,0,6.95,1.65h.05Z"/><polygon class="cls-3" points="112.14 44.43 108.13 53.63 94.06 20.84 89.44 20.84 107.65 63.28 108.57 63.28 116.77 44.43 112.14 44.43"/><polygon class="cls-3" points="116.77 44.43 127.04 20.84 122.42 20.84 112.14 44.43 116.77 44.43"/><path class="cls-3" d="M297.68,47.59A12.76,12.76,0,0,1,296,53.87a12.18,12.18,0,0,1-10.71,6.32v3.89h.29A15.5,15.5,0,0,0,297,59.27a16,16,0,0,0,4.76-11.63v0Z"/><polygon class="cls-2" points="180.55 40.52 180.55 31.89 176.51 31.89 176.51 42.07 180.55 40.52"/><polygon class="cls-3" points="176.51 45.23 176.51 63.28 180.55 63.28 180.55 43.68 176.51 45.23"/></svg>